# xmcd CD database file
#
# Track frame offsets:
#	150
#	20140
#	41267
#	65880
#	89921
#	118207
#	141559
#	162470
#	178048
#	203294
#
# Disc length: 2976 seconds
#
# Revision: 0
# Processed by: cddbd v1.5.2PL0 Copyright (c) Steve Scherf et al.
# Submitted via: CDex 1.51
#
DISCID=990b9e0a
DTITLE=David Lee Howard - Outlaw Troubadour
DYEAR=2000
DGENRE=Country
TTITLE0=Cajon Holiday
TTITLE1=Dome Go Breakin'
TTITLE2=Lonesome Road
TTITLE3=Big Red Hat
TTITLE4=Ghosts Of Africa
TTITLE5=Skitzoid Banjos
TTITLE6=Gimme Some Gumbo
TTITLE7=Act Your Rage
TTITLE8=Lover Is A Sea
TTITLE9=Outlaw Troubadour
EXTD=
EXTT0=
EXTT1=
EXTT2=
EXTT3=
EXTT4=
EXTT5=
EXTT6=
EXTT7=
EXTT8=
EXTT9=
PLAYORDER=
